<svg xmlns="http://www.w3.org/2000/svg" version="1.1" xmlns:xlink="http://www.w3.org/1999/xlink" xmlns:svgjs="http://svgjs.com/svgjs" width="1440" height="560" preserveAspectRatio="none" viewBox="0 0 1440 560"><g mask="url(&quot;#SvgjsMask1000&quot;)" fill="none"><rect width="1440" height="560" x="0" y="0" fill="#0e2a47"></rect><path d="M824.73 233.25L826.56 233.25L826.56 249.69L824.73 249.69z" stroke="#d3b714"></path><path d="M476.02 0.9 a16.02 16.02 0 1 0 32.04 0 a16.02 16.02 0 1 0 -32.04 0z" fill="#d3b714"></path><path d="M877.31 432.21a47.62 47.62 0 1 0-27.1 91.3z" stroke="#e73635"></path><path d="M143.9 36.79a53.4 53.4 0 1 0-102.21 30.96z" fill="#e73635"></path><path d="M1090.49 44.33a19.06 19.06 0 1 0 0.56 38.12z" fill="#037b0b"></path><path d="M1035.4 551.19L1073.17 551.19L1073.17 588.96L1035.4 588.96z" fill="#e73635"></path><path d="M470.95 179.42L473.15 179.42L473.15 200.45L470.95 200.45z" fill="#e73635"></path><path d="M625.03 330.55L634.92 330.55L634.92 362.08L625.03 362.08z" stroke="#037b0b"></path><path d="M743.89 432.3L764.21 432.3L764.21 452.62L743.89 452.62z" fill="#d3b714"></path><path d="M616.74 520.06L641.7 520.06L641.7 545.02L616.74 545.02z" stroke="#037b0b"></path><path d="M1263.57 294.27 a52.48 52.48 0 1 0 104.96 0 a52.48 52.48 0 1 0 -104.96 0z" fill="#e73635"></path><path d="M689.07 6.47a27.57 27.57 0 1 0 50.34 22.5z" fill="#d3b714"></path><path d="M826.39 488.46L828.95 488.46L828.95 503.76L826.39 503.76z" stroke="#e73635"></path><path d="M96.07 308.69 a46.09 46.09 0 1 0 92.18 0 a46.09 46.09 0 1 0 -92.18 0z" stroke="#d3b714"></path><path d="M1005.39 26.02a46.77 46.77 0 1 0-88.34-30.74z" stroke="#d3b714"></path><path d="M1416.56 470.28L1465.9 470.28L1465.9 519.62L1416.56 519.62z" fill="#037b0b"></path><path d="M1355.21 331.53a54.09 54.09 0 1 0 66.03-85.69z" fill="#d3b714"></path><path d="M1200.63 387.68L1235.78 387.68L1235.78 422.83L1200.63 422.83z" stroke="#037b0b"></path><path d="M1385.88 471.36L1422.72 471.36L1422.72 494.34L1385.88 494.34z" stroke="#037b0b"></path><path d="M843.59 275.76 a19.95 19.95 0 1 0 39.9 0 a19.95 19.95 0 1 0 -39.9 0z" stroke="#037b0b"></path><path d="M318.88 54.66 a5.3 5.3 0 1 0 10.6 0 a5.3 5.3 0 1 0 -10.6 0z" stroke="#e73635"></path><path d="M1112.26 307.06L1142.74 307.06L1142.74 322.55L1112.26 322.55z" stroke="#037b0b"></path><path d="M282.64 349.83L336.86 349.83L336.86 404.05L282.64 404.05z" fill="#d3b714"></path><path d="M878 425.43 a32.6 32.6 0 1 0 65.2 0 a32.6 32.6 0 1 0 -65.2 0z" stroke="#e73635"></path><path d="M-30.43 176.1a42.39 42.39 0 1 0 84.74 2.3z" fill="#e73635"></path><path d="M867.39 79.34a16.02 16.02 0 1 0-2.87-31.91z" fill="#037b0b"></path><path d="M1091.9 110.41L1100.16 110.41L1100.16 126.09L1091.9 126.09z" fill="#e73635"></path><path d="M763.9 378.96a14.46 14.46 0 1 0 26.2 12.24z" fill="#037b0b"></path><path d="M637.34 36.71 a43.91 43.91 0 1 0 87.82 0 a43.91 43.91 0 1 0 -87.82 0z" stroke="#d3b714"></path><path d="M125.89 126.17L154.14 126.17L154.14 154.42L125.89 154.42z" fill="#e73635"></path><path d="M250.71 525.88L298.93 525.88L298.93 548.96L250.71 548.96z" stroke="#e73635"></path><path d="M170.85 366.02L175.39 366.02L175.39 404.12L170.85 404.12z" fill="#037b0b"></path><path d="M976.79 319.3 a25.1 25.1 0 1 0 50.2 0 a25.1 25.1 0 1 0 -50.2 0z" fill="#037b0b"></path></g><defs><mask id="SvgjsMask1000"><rect width="1440" height="560" fill="#ffffff"></rect></mask></defs></svg>